@startuml
'https://plantuml.com/class-diagram
skinparam classAttributeIconSize 0

class Webserver {
- {static} PORT :int
- {static} FORMATTER : DateTimeFormatter
+ Webserver()
}

class SocketThread {
- insocked : Socked
- makeRequest(tokens : String[]) : Request
- makeRequestReader(tokens : String[]) : RequestReader
- makeRequestArea(tokens : String[]) : RequestArea
- makeHeaderAnswer() : String
- makeJsonAnswer(request : Request) : String
+ run()
}

Webserver +-right- SocketThread

note right of SocketThread
inner class
of Webserver
end note

class DirectoryDoors {
- {static} allDoors : Door[]
+ {static} makeDoors()
+ {static} findDoorById(id : String) : Door
+ {static} getAllDoors() : Door[]
}

DirectoryDoors --> "*" Door : "allDoors"

class DirectoryUsers {
- {static} users : User[]
+ {static} makeUsers()
+ {static} findUserByCredential(credential : String) : User
}

DirectoryUsers --> "*" User : "users"

class Door {
- id : String
- closed : boolean
+ Door(id : String)
+ processRequest(request : RequestReader)
+ setState(doorState : DoorState)
+ toJson() : JSONObject
'+ toString() : String
'+ isClosed() :boolean
'+ setClosed(b : boolean)
'+ getStateName() : String
- doAction(action : String)
}

package doorstates{
    abstract class DoorState {
    # door : Door
    # name : String
    + DoorState(door : Door)
    +open()
    +close()
    +lock()
    +unlock()
    }

    class States{
    + {static} LOCKED() : String
    + {static} UNLOCKED() : String
    }

    class Actions{
    + {static} LOCK() : String
    + {static} UNLOCK() : String
    + {static} OPEN() : String
    + {static} CLOSE() : String
    }

    class Unlocked{
    + DoorState(door : Door)
    +open()
    +close()
    +lock()
    +unlock()
    }

    class Locked{
    + DoorState(door : Door)
    +open()
    +close()
    +lock()
    +unlock()
    }

    Unlocked --|> DoorState
    Locked --|> DoorState
    Unlocked -[hidden]up- DoorState
    Locked -[hidden]up- DoorState
    Actions -[hidden]left- DoorState
    States -[hidden]left- DoorState
}

Door --> DoorState : "state"

class User {
- name : String
- credential : String
+ User(name: String, credential: String)
+ toString() : String
}


class Main {
+ {static} main(args : String)
}

note right of Main::main
DirectoryDoors.makeDoors()
DiretoryUsers.makeUsers()
new Webserver()
end note

Main -[hidden]down- Webserver
Webserver -[hidden]down- DirectoryDoors
DirectoryDoors -[hidden]right- DirectoryUsers
@enduml
